<svg width="164" height="184" viewBox="0 0 164 184" fill="none" xmlns="http://www.w3.org/2000/svg">
<path d="M100.924 111.489V96.0731C97.2952 97.8852 97.5973 103.93 97.5973 103.93C95.7852 99.6972 98.8053 95.7668 98.8053 95.7668C101.83 92.1383 102.736 84.8857 102.736 84.8857C100.622 83.0737 99.4093 79.7472 99.4093 79.7472C106.662 89.1182 114.221 89.4202 114.221 89.4202C126.612 91.5343 132.052 98.1872 132.052 98.1872C136.285 102.42 140.517 95.1628 140.517 95.1628C142.027 94.2567 145.656 79.1432 145.656 79.1432C146.562 79.4452 143.542 92.7467 143.542 92.7467L148.378 84.5837C150.794 84.5837 152.913 66.4501 152.913 66.4501C152.309 65.242 155.329 57.0791 155.329 57.0791C156.235 50.1285 151.096 47.1041 147.774 42.5696C144.448 38.0351 141.73 41.3615 141.73 41.3615L139.007 43.4756C135.983 44.6837 135.077 46.5 135.077 47.7081C135.077 48.9161 138.403 51.6386 138.403 51.6386L139.611 51.9406L143.24 55.569L146.566 55.871C146.566 55.871 146.868 61.9156 143.844 63.1236C140.819 64.3317 133.567 72.7966 133.567 72.7966C129.636 76.1231 127.824 83.3757 127.824 83.3757C127.22 80.3512 130.547 73.7027 130.547 73.7027C129.339 69.1682 117.552 65.5397 117.552 65.5397C116.042 71.2823 110.903 72.7923 110.903 72.7923C110.903 72.7923 115.438 68.8619 116.042 65.2377C116.646 61.6136 112.715 57.9851 112.715 57.9851C110.601 52.8466 95.4875 51.3365 95.4875 51.3365L98.8139 51.0345C97.9079 49.8265 90.349 46.8021 90.349 46.8021V44.688C90.349 42.5739 88.5369 41.0595 88.5369 41.0595L88.8389 38.3371C89.4429 42.8716 98.5119 46.8021 98.5119 46.8021C98.5119 46.8021 100.022 46.8021 100.928 44.688C101.834 42.5739 104.556 42.2719 104.556 42.2719V40.7618L105.463 40.4598L105.614 38.4967L109.846 38.7988C109.846 38.7988 108.94 33.6602 108.94 32.4522C108.94 31.2441 111.356 28.5217 111.356 28.5217C112.564 22.4772 111.356 18.5467 111.356 18.5467C111.356 10.3838 101.079 7.96768 101.079 7.96768C85.3615 4.64124 82.3414 20.0568 82.3414 20.0568C82.3414 20.0568 80.8313 27.0074 79.3169 29.7298C77.8069 32.4522 67.2278 34.8683 67.2278 34.8683L71.6113 32.3012C71.6113 32.3012 67.3788 29.2768 60.1262 29.8851C60.1262 29.8851 56.4978 24.4446 50.7553 27.1627H48.9432C48.9432 27.1627 54.9877 25.3506 56.4978 20.5141C56.4978 20.5141 58.0078 16.2816 58.0078 12.9595C58.0078 12.9595 61.0323 8.123 62.8443 8.42501C62.8443 8.42501 65.2604 10.8411 67.6808 10.2371C67.6808 10.2371 70.7053 14.7716 75.2355 14.1675L77.9579 12.0535C77.9579 12.0535 77.9579 6.00892 76.4478 5.70691C76.4478 5.70691 66.4728 0.568395 65.5668 0.568395C65.5668 0.568395 62.5423 -1.54569 58.3142 2.38046L49.8492 8.72702C49.8492 8.72702 42.2946 11.7515 39.2702 20.2121C39.2702 20.2121 35.9437 26.8607 34.7357 26.8607C34.7357 26.8607 31.1072 29.8851 34.7357 33.8112C34.7357 33.8112 40.1762 39.5538 40.1762 41.0638C40.1762 41.0638 43.2006 46.2024 45.9188 46.5044L47.1268 43.4799L47.4288 47.1084C47.4288 47.1084 48.6369 52.2469 50.4532 52.2469C50.4532 52.2469 48.6412 64.034 53.4777 67.9644C53.4777 67.9644 58.3142 74.311 59.8242 74.613C59.8242 74.613 61.0323 61.3159 63.1507 58.8955C63.1507 58.8955 61.0366 75.8211 61.6406 77.0291C61.6406 77.0291 62.8487 81.5636 64.0567 82.1676C64.0567 82.1676 67.6852 87.0041 67.0811 88.2122C67.0811 88.2122 64.665 84.8857 64.0567 85.1877C64.0567 85.1877 65.8688 92.7423 67.3831 94.8607L67.6852 97.8852C67.6852 97.8852 68.8414 110.716 67.5989 111.653" fill="black"/>
<path d="M22.3014 130.826L20.787 125.204L14.4534 136.085L33.4543 126.628L24.4457 138.402L8.4779 146.431H0L18.1078 115.212H26.5813L29.8819 127.167L22.2971 130.826H22.3014ZM26.5813 146.44L24.7089 140.24L31.1331 131.943L35.0592 146.44H26.5856H26.5813Z" fill="#4700CF"/>
<path d="M40.8119 115.216H59.0103C61.8665 115.216 64.0108 115.894 65.4561 117.244C66.8971 118.599 67.6176 120.493 67.6176 122.931C67.6176 124.803 67.2897 126.49 66.6383 127.991C65.9825 129.493 65.0764 130.779 63.9158 131.849C62.7552 132.919 61.3876 133.738 59.8128 134.303C58.238 134.869 56.5252 135.149 54.6829 135.149H46.0324L44.4706 146.431H36.4414L40.8119 115.212V115.216ZM46.9212 128.91H55.2179C56.5554 128.91 57.552 128.526 58.2078 127.75C58.8636 126.978 59.2649 126.084 59.4115 125.075C59.4719 124.691 59.4849 124.285 59.4547 123.871C59.4245 123.457 59.3123 123.069 59.1182 122.711C58.924 122.352 58.6436 122.055 58.2725 121.817C57.9015 121.58 57.3881 121.459 56.7323 121.459H47.9437L46.9169 128.906L46.9212 128.91ZM59.4115 136.271L66.237 146.44H56.9135L50.1786 136.271H59.4115Z" fill="#4700CF"/>
<path d="M71.9869 115.216H96.5189L95.6732 121.459H79.1273L78.2817 127.702H93.447L85.284 133.945H77.3886L76.543 140.188H93.447L92.6014 146.431H67.625L71.9955 115.212L71.9869 115.216Z" fill="#4700CF"/>
<path d="M100.13 115.216H108.16L120.602 135.956L123.502 115.216H131.531L127.16 146.436H119.131L106.688 125.696L103.789 146.436H95.7598L100.13 115.216Z" fill="#4700CF"/>
<path d="M150.799 130.826L149.285 125.204L142.951 136.085L161.952 126.628L152.943 138.402L136.976 146.431H128.502L146.61 115.212H155.083L158.384 127.167L150.799 130.826ZM155.079 146.44L153.207 140.24L159.631 131.943L163.557 146.44H155.083H155.079Z" fill="#4700CF"/>
<path d="M58.223 183.997H50.5778L53.2096 164.798C53.4081 163.413 53.2873 162.3 52.8472 161.463C52.4071 160.63 51.4795 160.212 50.0644 160.212H48.8348L46.2461 154.266H54.7412C55.9018 154.266 56.92 154.452 57.8002 154.819C58.676 155.185 59.4052 155.699 59.9876 156.346C60.5658 156.998 60.9799 157.791 61.2172 158.723C61.4545 159.655 61.4934 160.691 61.3251 161.825L58.223 183.997Z" fill="#4700CF"/>
<path d="M68.1639 168.452C67.6245 167.715 67.1888 167.003 66.8479 166.308C66.5071 165.613 66.3388 164.742 66.3388 163.698C66.3388 162.171 66.5804 160.816 67.0593 159.642C67.5426 158.469 68.2199 157.485 69.1001 156.691C69.9759 155.897 71.033 155.298 72.2626 154.888C73.4922 154.478 74.8728 154.271 76.4045 154.271H83.4111C86.2155 154.271 88.308 154.914 89.6973 156.204C91.0822 157.494 91.5956 159.427 91.2246 162.002C91.1124 162.822 90.9485 163.53 90.7371 164.125C90.5257 164.72 90.2711 165.264 89.9734 165.76C89.6757 166.256 89.3349 166.709 88.9552 167.119C88.5712 167.529 88.1398 167.978 87.6609 168.457C88.7912 169.22 89.6843 170.221 90.3358 171.451C90.9873 172.685 91.1858 174.191 90.9312 175.972C90.763 177.133 90.4264 178.203 89.9346 179.178C89.4384 180.153 88.7654 181.003 87.9154 181.728C87.0655 182.453 86.0171 183.009 84.7745 183.406C83.5276 183.803 82.0823 184.002 80.4428 184.002H71.0545C69.4107 184.002 68.0258 183.803 66.8911 183.406C65.7564 183.009 64.859 182.453 64.1946 181.728C63.5301 181.007 63.0814 180.157 62.8571 179.178C62.6284 178.203 62.6025 177.133 62.7708 175.972C63.0253 174.191 63.6466 172.681 64.6389 171.451C65.6313 170.221 66.8048 169.22 68.1639 168.457V168.452ZM70.3729 175.118C70.2305 176.136 70.498 176.878 71.1797 177.349C71.8613 177.819 72.6379 178.048 73.5138 178.048H79.5885C80.0113 178.048 80.4514 177.992 80.9044 177.879C81.3574 177.767 81.7673 177.59 82.134 177.349C82.5008 177.107 82.8157 176.805 83.0703 176.434C83.3248 176.067 83.4931 175.627 83.5794 175.118C83.6657 174.437 83.5362 173.906 83.1954 173.526C82.8546 173.142 82.3929 172.853 81.8148 172.655C81.2323 172.456 80.5895 172.331 79.8819 172.271C79.1743 172.215 78.4926 172.184 77.8455 172.184H76.9524C76.3311 172.184 75.6494 172.215 74.9117 172.271C74.1739 172.327 73.4879 172.456 72.8537 172.655C72.2151 172.853 71.6629 173.142 71.1969 173.526C70.731 173.91 70.4548 174.441 70.3685 175.118H70.3729ZM73.7252 163.055C73.6389 163.65 73.695 164.151 73.8934 164.565C74.0919 164.975 74.3767 165.307 74.7434 165.562C75.1101 165.816 75.5286 165.993 75.9946 166.092C76.4605 166.192 76.9092 166.239 77.3321 166.239H79.1571C79.5799 166.239 80.0415 166.192 80.5377 166.092C81.0339 165.993 81.4912 165.816 81.9183 165.562C82.3455 165.307 82.7122 164.975 83.0228 164.565C83.3335 164.155 83.5319 163.65 83.6182 163.055C83.7045 162.516 83.6657 162.071 83.5104 161.717C83.355 161.364 83.1436 161.075 82.8718 160.846C82.6043 160.622 82.2894 160.458 81.9356 160.358C81.5818 160.259 81.2366 160.212 80.8958 160.212H77.2846C76.9438 160.212 76.5857 160.264 76.2017 160.358C75.8177 160.458 75.4596 160.622 75.1187 160.846C74.7779 161.075 74.4802 161.364 74.2257 161.717C73.9711 162.071 73.8028 162.516 73.7166 163.055H73.7252Z" fill="#4700CF"/>
<path d="M95.5143 161.912C95.6826 160.751 96.0148 159.703 96.5109 158.766C97.0071 157.83 97.637 157.032 98.4007 156.368C99.1643 155.703 100.044 155.185 101.032 154.819C102.025 154.452 103.086 154.266 104.217 154.266H114.705C115.866 154.266 116.884 154.452 117.764 154.819C118.64 155.185 119.369 155.703 119.951 156.368C120.529 157.032 120.944 157.835 121.181 158.766C121.423 159.703 121.457 160.747 121.289 161.912L119.252 176.352C119.084 177.487 118.748 178.527 118.256 179.476C117.76 180.425 117.13 181.232 116.366 181.896C115.602 182.561 114.731 183.078 113.756 183.445C112.781 183.812 111.711 183.997 110.55 183.997H100.057C98.9227 183.997 97.9131 183.812 97.02 183.445C96.1269 183.078 95.3935 182.561 94.811 181.896C94.2286 181.232 93.8187 180.425 93.5814 179.476C93.3398 178.527 93.3053 177.487 93.4736 176.352L95.5143 161.912ZM99.4232 158.344L104.816 155.837L116.155 180.088L110.805 182.595L99.4232 158.344ZM101.546 173.461C101.347 174.851 101.555 175.96 102.163 176.797C102.771 177.634 103.699 178.048 104.946 178.048H107.241C108.488 178.048 109.549 177.629 110.425 176.797C111.301 175.96 111.84 174.851 112.039 173.461L113.229 164.798C113.428 163.413 113.216 162.3 112.591 161.463C111.97 160.63 111.033 160.212 109.786 160.212H107.491C106.244 160.212 105.192 160.63 104.329 161.463C103.466 162.3 102.935 163.409 102.737 164.798L101.546 173.461Z" fill="#4700CF"/>
</svg>
